<svg version="1.0" xmlns="http://www.w3.org/2000/svg" width="512" height="512" viewBox="0 0 512 512" preserveAspectRatio="xMidYMid meet">
<g transform="translate(0.000000,512.000000) scale(0.100000,-0.100000)"
fill="#a9aeb1" stroke="none">
<path class="open" d="M854 5105 c-409 -75 -724 -368 -826 -771 l-23 -89 0 -1685 0 -1685
22 -88 c48 -185 129 -332 262 -470 140 -145 303 -240 497 -289 l89 -23 1685 0
1685 0 85 22 c382 98 665 381 763 763 l22 85 0 1685 0 1685 -23 89 c-47 186
-142 353 -274 484 -136 134 -282 219 -468 271 l-95 26 -1665 2 c-1323 1 -1679
-1 -1736 -12z m3116 -509 c329 -59 584 -322 629 -650 15 -108 15 -2664 0
-2772 -47 -337 -316 -606 -653 -653 -108 -15 -2665 -15 -2772 0 -328 45 -591
300 -650 629 -20 111 -20 2710 0 2820 58 320 304 567 621 625 105 20 2718 20
2825 1z"/>
<path class="open" d="M1020 3590 c0 -280 3 -510 7 -510 4 0 92 84 195 187 l188 188 318
-318 317 -317 128 127 127 128 -317 317 -318 318 188 188 c103 103 187 191
187 195 0 4 -229 7 -510 7 l-510 0 0 -510z"/>
<path class="open" d="M3080 4093 c0 -4 84 -92 187 -195 l188 -188 -318 -318 -317 -317 127
-128 128 -127 317 317 318 318 188 -188 c103 -103 191 -187 195 -187 4 0 7
230 7 510 l0 510 -510 0 c-280 0 -510 -3 -510 -7z"/>
<path class="open" d="M1727 1982 l-317 -317 -188 188 c-103 103 -191 187 -195 187 -4 0 -7
-229 -7 -510 l0 -510 510 0 c281 0 510 3 510 7 0 4 -84 92 -187 195 l-188 188
318 318 317 317 -128 128 -127 127 -318 -318z"/>
<path class="open" d="M2942 2173 l-121 -128 317 -317 317 -318 -188 -188 c-103 -103 -187
-191 -187 -195 0 -4 228 -6 508 -5 l507 3 3 508 c1 279 -1 507 -5 507 -4 0
-92 -84 -195 -187 l-188 -188 -318 318 c-174 174 -320 317 -323 317 -4 0 -61
-57 -127 -127z"/>
</g>
</svg>
